<?xml version="1.0" encoding="utf-8"?>
<!-- Generator: Adobe Illustrator 16.0.0, SVG Export Plug-In . SVG Version: 6.00 Build 0)  -->
<!DOCTYPE svg PUBLIC "-//W3C//DTD SVG 1.1//EN" "http://www.w3.org/Graphics/SVG/1.1/DTD/svg11.dtd">
<svg version="1.1" id="Layer_1" xmlns="http://www.w3.org/2000/svg" xmlns:xlink="http://www.w3.org/1999/xlink" x="0px" y="0px"
	 width="639.78px" height="372.76px" viewBox="0 0 639.78 372.76" enable-background="new 0 0 639.78 372.76" xml:space="preserve">
<path id="XMLID_138_" fill="#4E59A7" d="M640.047,372.532v-93.645l-124.438-91.114h124.438v-84.364H285.716
	C268.843,40.136,213.584-0.359,145.67-0.359C63.415-0.359,0.142,65.445,0.142,146.856c0,80.99,63.273,145.107,145.528,145.107
	c67.07,0,121.907-49.354,139.624-104.19h197.413l-116.423,85.63v96.598l137.092-100.394L640.047,372.532z M210.631,147.7
	c0,35.855-25.73,63.273-64.961,63.273c-39.229,0-64.96-27.418-64.96-63.273c0-35.854,25.73-63.273,64.96-63.273
	C184.9,84.427,210.631,111.846,210.631,147.7z"/>
</svg>
